<?xml version="1.0" encoding="UTF-8"?><svg id="Logo" xmlns="http://www.w3.org/2000/svg" viewBox="0 0 61.98 62.19"><defs><style>.cls-1{fill:#008400;}</style></defs><path class="cls-1" d="M4.73,33.53H0c.74,9.62,5.88,18.02,13.4,23.18l2.36-4.09c-6.12-4.33-10.32-11.21-11.04-19.08m52.53,0c-.72,7.87-4.91,14.76-11.04,19.08l2.36,4.09c7.52-5.16,12.66-13.56,13.4-23.18h-4.73ZM48.58,5.48l-2.36,4.09c6.12,4.34,10.32,11.23,11.04,19.09h4.73c-.74-9.62-5.88-18.02-13.4-23.19m-35.19,0C5.88,10.66,.74,19.05,0,28.67H4.73c.72-7.87,4.92-14.76,11.03-19.09l-2.35-4.09h-.01ZM30.99,0c-4.78,0-9.32,1.09-13.38,3.04l2.36,4.09c3.35-1.55,7.08-2.42,11.02-2.42s7.68,.87,11.03,2.42l2.36-4.09c-4.05-1.95-8.6-3.04-13.39-3.04m11.02,55.05c-3.35,1.55-7.08,2.42-11.02,2.42s-7.67-.87-11.02-2.42l-2.36,4.09c4.06,1.95,8.6,3.04,13.38,3.04s9.34-1.09,13.39-3.04l-2.37-4.09ZM9.62,28.67h4.75c1.07-7.32,6.88-13.12,14.19-14.19v-4.75c-9.92,1.11-17.83,9.02-18.94,18.94m38,4.86c-1.06,7.32-6.87,13.12-14.19,14.19v4.75c9.93-1.12,17.83-9.02,18.94-18.94h-4.75Zm-14.19-23.8v4.75c7.32,1.07,13.12,6.87,14.19,14.19h4.75c-1.11-9.92-9.01-17.82-18.94-18.94M14.37,33.53h-4.75c1.11,9.92,9.02,17.83,18.94,18.94v-4.75c-7.31-1.06-13.12-6.87-14.19-14.19m23.42,0c-1,2.8-3.67,4.79-6.8,4.79s-5.79-2-6.79-4.79h-4.88c1.12,5.42,5.92,9.51,11.67,9.51s10.56-4.08,11.68-9.51h-4.88Zm-6.8-14.37c-5.75,0-10.55,4.08-11.67,9.51h4.88c1-2.8,3.67-4.79,6.79-4.79s5.8,2,6.8,4.79h4.88c-1.12-5.43-5.92-9.51-11.68-9.51"/></svg>